<svg xmlns="http://www.w3.org/2000/svg" xmlns:xlink="http://www.w3.org/1999/xlink" viewBox="0 0 310.1 364.83"><defs><linearGradient id="linear-gradient" x1="-139.89" y1="377" x2="-17.4" y2="377" gradientTransform="matrix(-1, 0, 0, 1, 200.82, 0)" gradientUnits="userSpaceOnUse"><stop offset="0" stop-color="#5155d4"/><stop offset="1" stop-color="#45f7ff"/></linearGradient><linearGradient id="linear-gradient-2" x1="234.41" y1="116.69" x2="365.13" y2="116.69" gradientUnits="userSpaceOnUse"><stop offset="0" stop-color="#7f5eff"/><stop offset="0.24" stop-color="#8665ff"/><stop offset="0.6" stop-color="#9978ff"/><stop offset="0.94" stop-color="#b391ff"/></linearGradient><linearGradient id="linear-gradient-3" x1="357.32" y1="395.83" x2="357.32" y2="171.14" gradientUnits="userSpaceOnUse"><stop offset="0" stop-color="#5745ff"/><stop offset="0.19" stop-color="#5e49ff"/><stop offset="0.46" stop-color="#7253ff"/><stop offset="0.78" stop-color="#9164ff"/><stop offset="0.94" stop-color="#a46eff"/></linearGradient><linearGradient id="linear-gradient-4" x1="331.84" y1="459.76" x2="281.93" y2="173.2" xlink:href="#linear-gradient-2"/><linearGradient id="linear-gradient-5" x1="292.51" y1="141.32" x2="292.51" y2="157.66" xlink:href="#linear-gradient-2"/><linearGradient id="linear-gradient-6" x1="291.91" y1="378.62" x2="291.91" y2="310.27" gradientUnits="userSpaceOnUse"><stop offset="0" stop-color="#9a79ff"/><stop offset="0.94" stop-color="#b391ff"/></linearGradient><linearGradient id="linear-gradient-7" x1="276.52" y1="151.99" x2="305.56" y2="211.37" gradientUnits="userSpaceOnUse"><stop offset="0" stop-color="#9a79ff"/><stop offset="0.34" stop-color="#ba76e8"/><stop offset="0.94" stop-color="#fb6fb9"/></linearGradient><linearGradient id="linear-gradient-8" x1="287.52" y1="246.96" x2="287.52" y2="308.97" gradientTransform="matrix(1, 0, 0, 1, 0, 0)" xlink:href="#linear-gradient"/><linearGradient id="linear-gradient-9" x1="112.52" y1="345.21" x2="178.54" y2="345.21" gradientTransform="matrix(1, 0, 0, 1, 0, 0)" xlink:href="#linear-gradient"/><linearGradient id="linear-gradient-10" x1="230.46" y1="348.31" x2="222.06" y2="413.68" gradientUnits="userSpaceOnUse"><stop offset="0" stop-color="#6851f5"/><stop offset="1" stop-color="#00cfff"/></linearGradient><linearGradient id="linear-gradient-11" x1="226.13" y1="379.98" x2="247.55" y2="379.98" xlink:href="#linear-gradient-10"/><linearGradient id="linear-gradient-12" x1="8.44" y1="312.71" x2="74.46" y2="312.71" gradientTransform="matrix(1, 0, 0, 1, 0, 0)" xlink:href="#linear-gradient"/><linearGradient id="linear-gradient-13" x1="623.59" y1="321.09" x2="637.39" y2="247.5" gradientTransform="matrix(-1, 0, 0, 1, 785.2, 0)" xlink:href="#linear-gradient-2"/><linearGradient id="linear-gradient-14" x1="644.91" y1="312.72" x2="672.86" y2="257.17" gradientTransform="matrix(-1, 0, 0, 1, 785.2, 0)" xlink:href="#linear-gradient-2"/><linearGradient id="linear-gradient-15" x1="641.71" y1="302.85" x2="666.96" y2="302.85" gradientTransform="matrix(-1, 0, 0, 1, 785.2, 0)" gradientUnits="userSpaceOnUse"><stop offset="0" stop-color="#ff4f00"/><stop offset="1" stop-color="#ff3d9d"/></linearGradient><linearGradient id="linear-gradient-16" x1="652.91" y1="260.21" x2="653.62" y2="305.85" gradientTransform="matrix(-1, 0, 0, 1, 785.2, 0)" xlink:href="#linear-gradient-2"/></defs><title>494642-PHERZJ-463</title><g style="isolation:isolate"><g id="OBJECTS"><g style="opacity:0.32;mix-blend-mode:multiply"><path d="M220.23,353.43c-2.66,1.53-2.67,4,0,5.55l88.25,51.28a10.54,10.54,0,0,0,9.58,0l20.69-9.69c2.65-1.53,2.67-4,0-5.55L250.5,343.74a10.56,10.56,0,0,0-9.58,0Z" transform="translate(-93.9 -70.01)" style="fill:url(#linear-gradient)"/></g><path d="M195.93,139.14v2.2a1.69,1.69,0,0,0,2.53,1.45l10.39-6a1.69,1.69,0,0,0,.84-1.46v-2.2a1.69,1.69,0,0,0-2.53-1.45l-10.39,6A1.69,1.69,0,0,0,195.93,139.14Z" transform="translate(-93.9 -70.01)" style="fill:#1ae5ff"/><path d="M163.06,169.06v2.21a1.69,1.69,0,0,0,2.53,1.46l43.29-25a1.69,1.69,0,0,0,.84-1.47v-2.21a1.69,1.69,0,0,0-2.53-1.46l-43.29,25A1.69,1.69,0,0,0,163.06,169.06Z" transform="translate(-93.9 -70.01)" style="fill:#1ae5ff"/><g style="opacity:0.53"><path d="M181,180.69v2.21a1.69,1.69,0,0,0,2.53,1.46L209,169.67a1.69,1.69,0,0,0,.84-1.47V166a1.69,1.69,0,0,0-2.53-1.46l-25.44,14.69A1.69,1.69,0,0,0,181,180.69Z" transform="translate(-93.9 -70.01)" style="fill:#1ae5ff"/></g><path d="M169.81,176.16v2.21a1.69,1.69,0,0,0,2.53,1.46l36.58-21.12a1.69,1.69,0,0,0,.84-1.47V155a1.69,1.69,0,0,0-2.53-1.46l-36.58,21.12A1.69,1.69,0,0,0,169.81,176.16Z" transform="translate(-93.9 -70.01)" style="fill:#1ae5ff"/><g style="opacity:0.37"><path d="M396.16,172.5A1.9,1.9,0,0,1,397,174l0,15c0,.55-.39.77-.87.49l-19-11a1.9,1.9,0,0,1-.86-1.49l0-15c0-.55.39-.77.87-.49Z" transform="translate(-93.9 -70.01)" style="fill:#8ed2ff"/></g><g style="opacity:0.47000000000000003"><path d="M403.14,199.19a1.9,1.9,0,0,1,.86,1.49l0,15c0,.55-.39.77-.87.49l-19-11a1.9,1.9,0,0,1-.86-1.49l0-15c0-.55.39-.77.87-.49Z" transform="translate(-93.9 -70.01)" style="fill:#7974f5"/></g><g style="opacity:0.37"><path d="M210,213.35a1.23,1.23,0,0,1,.56,1l0,9.69c0,.35-.25.5-.56.32l-12.27-7.08a1.23,1.23,0,0,1-.56-1l0-9.69c0-.35.25-.5.56-.32Z" transform="translate(-93.9 -70.01)" style="fill:#8ed2ff"/></g><g style="opacity:0.47000000000000003"><path d="M214.49,230.59a1.23,1.23,0,0,1,.56,1l0,9.69c0,.35-.25.5-.56.32l-12.27-7.08a1.23,1.23,0,0,1-.56-1l0-9.69c0-.35.25-.5.56-.32Z" transform="translate(-93.9 -70.01)" style="fill:#7974f5"/></g><path d="M339.75,131l.2.17q.88.72,1.73,1.51l.2.19q.86.81,1.69,1.68l.14.15q.88.94,1.72,1.95l0,0q.86,1,1.66,2.12h0c.49.66,1,1.35,1.42,2,.28.43.55.87.82,1.31s.46.73.67,1.1l.3.53c.35.63.7,1.26,1,1.9l.11.21q.59,1.17,1.11,2.36l.05.12a38.14,38.14,0,0,1,3.41,15l9.1-5.29a37,37,0,0,0-2.72-13.3h0q-.19-.5-.4-1l-.31-.71-.05-.12-.06-.14-.45-1q-.25-.54-.52-1.07l-.09-.16-.11-.21-.44-.85c-.19-.35-.39-.7-.59-1l-.3-.53-.12-.21c-.18-.3-.38-.59-.56-.89s-.54-.88-.82-1.31l-.13-.21q-.62-.93-1.29-1.83h0q-.44-.6-.9-1.19l-.76-.93,0,0h0l-.79-.92-.79-.88-.13-.14-.14-.15-.56-.59-.86-.85-.27-.25-.2-.19-.42-.39-.9-.79-.4-.33-.2-.17-.3-.24-.89-.68-.65-.46-.12-.08-.11-.08-.86-.57-.86-.53-.2-.12L258,72.8l-.65-.36L256.5,72l-.54-.25-.13-.06-.16-.07-.81-.35L254,71l-.14,0-.13,0-.55-.18-.84-.23-.4-.09-.18,0-.26-.06-.89-.15-.54-.05-.19,0-.18,0q-.48,0-1,0l-.41,0h-.32l-.33,0a11.15,11.15,0,0,0-1.17.17h0l-.25.07a10.34,10.34,0,0,0-1.15.32l-.13.05-.18.08a9.77,9.77,0,0,0-1.34.63l-9.1,5.29a9.75,9.75,0,0,1,1.34-.63l.18-.08a10.28,10.28,0,0,1,1.28-.37l.25-.07a11.3,11.3,0,0,1,1.52-.19l.32,0a12.89,12.89,0,0,1,1.55,0l.19,0a15.09,15.09,0,0,1,1.69.26l.18,0a17.88,17.88,0,0,1,1.79.5l.13,0q1,.33,1.93.77l.13.06c.66.31,1.33.65,2,1l86.87,50.15c.69.4,1.37.83,2,1.29l.12.08Q338.84,130.28,339.75,131Z" transform="translate(-93.9 -70.01)" style="fill:url(#linear-gradient-2)"/><path d="M365.12,157.17q0-.49,0-1t-.08-1q0-.5-.11-1t-.15-1q-.08-.51-.18-1t-.22-1.06q-.12-.53-.25-1.07t-.28-1.08q-.15-.54-.31-1.07t-.34-1.05q-.17-.52-.36-1t-.37-1l-9.1,5.29q.19.5.37,1t.36,1q.18.53.34,1.05t.31,1.07q.15.54.28,1.08t.25,1.07q.12.53.22,1.06t.18,1q.08.51.15,1t.11,1q0,.5.08,1t0,1q0,.46,0,.92l-.59,208.43c0,.77,0,1.51-.11,2.23l0,.19q-.1,1-.28,1.9l0,.24q-.18.88-.44,1.69l-.1.3a15,15,0,0,1-.57,1.45l-.07.15a12.81,12.81,0,0,1-.82,1.48l-.13.18a11.26,11.26,0,0,1-.79,1l-.31.34a10.24,10.24,0,0,1-.76.74l-.33.29a9.75,9.75,0,0,1-1.18.82l9.1-5.29a9.75,9.75,0,0,0,1.18-.82l.33-.29a10.25,10.25,0,0,0,.76-.74l.31-.34a11.23,11.23,0,0,0,.79-1l.13-.18,0,0a12.8,12.8,0,0,0,.77-1.39l0,0,.07-.16c.14-.31.28-.62.4-1,.06-.16.11-.33.17-.5l.1-.3c0-.09.06-.18.09-.27q.15-.51.27-1c0-.12.05-.25.08-.38l0-.24c0-.12.05-.24.07-.37q.08-.48.15-1c0-.18,0-.37.06-.56l0-.19c0-.08,0-.15,0-.23q0-.47.06-1t0-1v-.06l.59-208.43Q365.13,157.63,365.12,157.17Z" transform="translate(-93.9 -70.01)" style="fill:url(#linear-gradient-3)"/><path d="M335.75,128.24c11.23,6.49,20.32,22.21,20.28,35.13l-.59,208.43c0,12.91-9.18,18.12-20.41,11.63l-86.87-50.15c-11.23-6.49-20.32-22.22-20.28-35.13l.59-208.43c0-12.92,9.18-18.12,20.41-11.63Z" transform="translate(-93.9 -70.01)" style="fill:url(#linear-gradient-4)"/><path d="M303.72,129.79a5.42,5.42,0,0,1,2.46,4.25c0,1.57-1.11,2.2-2.47,1.42l-22.4-12.93a5.42,5.42,0,0,1-2.46-4.26c0-1.56,1.11-2.19,2.47-1.41Z" transform="translate(-93.9 -70.01)" style="fill:url(#linear-gradient-5)"/><path d="M291.93,328.35a14.6,14.6,0,0,1,6.62,11.47c0,4.21-3,5.92-6.66,3.8a14.6,14.6,0,0,1-6.62-11.47C285.28,327.94,288.27,326.23,291.93,328.35Z" transform="translate(-93.9 -70.01)" style="fill:url(#linear-gradient-6)"/><path d="M347.11,173.2a4.49,4.49,0,0,1,2,3.53l-.49,174.16c0,1.3-.92,1.82-2.05,1.17l-109.3-63.1a4.49,4.49,0,0,1-2-3.53l.49-174.16c0-1.3.92-1.82,2.05-1.17Z" transform="translate(-93.9 -70.01)" style="fill:#f9fbfc"/><path d="M360.8,233.62h0a1.29,1.29,0,0,1-1.29-1.29V193.6a1.29,1.29,0,0,1,1.29-1.29h0a1.29,1.29,0,0,1,1.29,1.29v38.73A1.29,1.29,0,0,1,360.8,233.62Z" transform="translate(-93.9 -70.01)" style="fill:#f9fbfc"/><path d="M360.8,281.81h0a1.29,1.29,0,0,1-1.29-1.29V241.79a1.29,1.29,0,0,1,1.29-1.29h0a1.29,1.29,0,0,1,1.29,1.29v38.73A1.29,1.29,0,0,1,360.8,281.81Z" transform="translate(-93.9 -70.01)" style="fill:#f9fbfc"/><path d="M360.8,341h0a1.29,1.29,0,0,1-1.29-1.29V319.67a1.29,1.29,0,0,1,1.29-1.29h0a1.29,1.29,0,0,1,1.29,1.29v20.06A1.29,1.29,0,0,1,360.8,341Z" transform="translate(-93.9 -70.01)" style="fill:#113c7a"/><path d="M291.19,185.39c5.59,3.23,10.12,11,10.18,17.47,0,.05,0,.11,0,.16-.23.09-4.69,1.87-10.36-1.29l-.2-.11c-4.43-2.56-8.06-7.64-9.36-9.6-.33-.5-.5-.78-.51-.8C281,184.75,285.54,182.13,291.19,185.39Z" transform="translate(-93.9 -70.01)" style="fill:#fff"/><path d="M337.2,241.57a5.13,5.13,0,0,1,2.33,4l0,9.82c0,1.49-1.05,2.09-2.35,1.34L247.33,204.9a5.14,5.14,0,0,1-2.33-4l0-9.82c0-1.48,1.05-2.08,2.35-1.33Z" transform="translate(-93.9 -70.01)" style="fill:#cfe3ff"/><path d="M306.54,183.13a31.08,31.08,0,0,1,1.11,5.22,24.85,24.85,0,0,1,.19,3c0,.3,0,.6,0,.89v.13q0,.42-.06.82l0,.16c0,.27-.06.53-.1.79s-.1.6-.15.85-.12.56-.18.8l0,.12q-.09.35-.2.68l0,.12c-.07.22-.15.44-.24.66s-.19.47-.29.66-.23.47-.33.66l-.06.11q-.16.28-.32.54l-.05.08c-.12.18-.24.36-.37.52s-.27.33-.4.49l-.06.07-.41.42-.08.08-.44.38-.07.05-.46.34c-.19.13-.36.24-.53.33l-.09.05-.5.26-.11,0-.53.22-.34.11c-.06-6.45-4.59-14.24-10.18-17.46s-10.23-.64-10.25,5.83c0,0,.16.27.47.73l-.4-.56-.59-.88-.09-.14-.53-.83-.11-.18-.52-.87-.5-.9-.09-.17-.46-.88-.08-.16-.42-.85c-.18-.38-.32-.69-.45-1l-.08-.19q-.2-.45-.38-.91c-.16-.4-.27-.68-.38-1l-.05-.14q-.17-.46-.32-.92l-.06-.18q-.31-.94-.57-1.88l-.05-.19q-.12-.46-.23-.91l0-.16q-.1-.43-.19-.87c-.08-.41-.13-.71-.18-1l0-.2q-.07-.46-.13-.91c0-.39-.07-.67-.1-1V174q0-.44-.05-.88v-.19c0-.3,0-.6,0-.9a19.8,19.8,0,0,1,.2-2.82,14,14,0,0,1,1.14-3.92q.16-.34.34-.66c2.73-4.9,8.49-6,15.15-2.19,6,3.45,11.21,10.07,14.17,17.19.19.47.38.94.56,1.41Q306.22,182.08,306.54,183.13Zm-15.12.48c3.44,2,6.24.39,6.25-3.56a13.67,13.67,0,0,0-6.21-10.76c-3.44-2-6.24-.4-6.25,3.56a13.7,13.7,0,0,0,6.21,10.76" transform="translate(-93.9 -70.01)" style="fill:url(#linear-gradient-7)"/><path d="M306.54,183.13a31.08,31.08,0,0,1,1.11,5.22,24.85,24.85,0,0,1,.19,3c0,.3,0,.6,0,.89v.13q0,.42-.06.82l0,.16c0,.27-.06.53-.1.79s-.1.6-.15.85-.12.56-.18.8l0,.12q-.09.35-.2.68l0,.12c-.07.22-.15.44-.24.66s-.19.47-.29.66-.23.47-.33.66l-.06.11q-.16.28-.32.54l-.05.08c-.12.18-.24.36-.37.52s-.27.33-.4.49l-.06.07-.41.42-.08.08-.44.38-.07.05-.46.34c-.19.13-.36.24-.53.33l-.09.05-.5.26-.11,0-.53.22-.34.11c-.06-6.45-4.59-14.24-10.18-17.46s-10.23-.64-10.25,5.83c0,0,.16.27.47.73l-.4-.56-.59-.88-.09-.14-.53-.83-.11-.18-.52-.87-.5-.9-.09-.17-.46-.88-.08-.16-.42-.85c-.18-.38-.32-.69-.45-1l-.08-.19q-.2-.45-.38-.91c-.16-.4-.27-.68-.38-1l-.05-.14q-.17-.46-.32-.92l-.06-.18q-.31-.94-.57-1.88l-.05-.19q-.12-.46-.23-.91l0-.16q-.1-.43-.19-.87c-.08-.41-.13-.71-.18-1l0-.2q-.07-.46-.13-.91c0-.39-.07-.67-.1-1V174q0-.44-.05-.88v-.19c0-.3,0-.6,0-.9a19.8,19.8,0,0,1,.2-2.82,14,14,0,0,1,1.14-3.92q.16-.34.34-.66c2.73-4.9,8.49-6,15.15-2.19,6,3.45,11.21,10.07,14.17,17.19.19.47.38.94.56,1.41Q306.22,182.08,306.54,183.13Zm-15.12.48c3.44,2,6.24.39,6.25-3.56a13.67,13.67,0,0,0-6.21-10.76c-3.44-2-6.24-.4-6.25,3.56a13.7,13.7,0,0,0,6.21,10.76" transform="translate(-93.9 -70.01)" style="fill:none"/><path d="M291.47,169.3a13.67,13.67,0,0,1,6.21,10.76c0,3.95-2.81,5.55-6.25,3.56a13.7,13.7,0,0,1-6.21-10.76C285.23,168.9,288,167.32,291.47,169.3Z" transform="translate(-93.9 -70.01)" style="fill:#fff"/><path d="M337.14,262.94a5.14,5.14,0,0,1,2.33,4l0,9.82c0,1.49-1.05,2.08-2.35,1.33l-89.82-51.86a5.12,5.12,0,0,1-2.33-4l0-9.82c0-1.49,1.05-2.09,2.35-1.34Z" transform="translate(-93.9 -70.01)" style="fill:#cfe3ff"/><path d="M302.08,278.86a12.19,12.19,0,0,1,5.53,9.58v2.25c0,3.52-2.5,4.94-5.56,3.17L273,277.09a12.19,12.19,0,0,1-5.54-9.58v-2.25c0-3.51,2.51-4.94,5.57-3.17Z" transform="translate(-93.9 -70.01)" style="fill:url(#linear-gradient-8)"/><ellipse cx="145.53" cy="345.21" rx="33.01" ry="19.62" style="opacity:0.32;mix-blend-mode:multiply;fill:url(#linear-gradient-9)"/><path d="M272.94,281.93a15.64,15.64,0,0,0,2.46-2c.49-.66,1.15-4.44.49-4.6s-1.15,2.46-1.15,2.46-.16-6.9-1-7.89-3.45,3.94-3.61,4.76-.82,4.27-.82,4.27S270.31,281.93,272.94,281.93Z" transform="translate(-93.9 -70.01)" style="fill:#ff9d6f"/><path d="M222.72,301.74s-5.15,5.16-1.54,11.41,28.26-9.2,30.89-11.5,19.88-17.75,20.87-19.72-1.15-3.94-3.78-3.61S256,289.82,247.8,295.08C247.8,295.08,228.2,299.54,222.72,301.74Z" transform="translate(-93.9 -70.01)" style="fill:#113c7a"/><path d="M225.74,411s-.42,3.11.14,4.38a3.19,3.19,0,0,0,4.38.85,45,45,0,0,0,4.24-4s4.52-2.4,4.95-3.68-1.13-2.4-2.4-2.12S232.1,409,230.4,409,226.3,409.45,225.74,411Z" transform="translate(-93.9 -70.01)" style="fill:#113c7a"/><path d="M221.07,344.79s4,65.31,4.45,67.2,5.63,3,6.58,0c.6-1.91,2.09-62.34,2.09-62.34Z" transform="translate(-93.9 -70.01)" style="fill:url(#linear-gradient-10)"/><path d="M238.82,414.89a1,1,0,0,0-.35.76c0,.9,0,2.9.54,3.68a3.8,3.8,0,0,0,4.91.92c1.83-1,7.47-5.21,8.61-6.14a3.37,3.37,0,0,0,1.14-1.8,1,1,0,0,0-.58-1.19,4.91,4.91,0,0,0-3.39-.39c-1.87.63-4.22,2.65-6.76,2.54A6.24,6.24,0,0,0,238.82,414.89Z" transform="translate(-93.9 -70.01)" style="fill:#113c7a"/><path d="M247.55,345.5c-.29-2.71-3.53-3.6-6.52-2.67-5.71-.31-14.54-.06-14.85,4.37-.46,6.56,2.62,11.24,5.58,14.42,2.19,2.35,3.65,6.85,4.26,9,.52,17.32,1.67,41.74,2.38,44.08,1.15,3.77,6.83,3.6,7.09-.07C246.65,402.28,247.55,345.5,247.55,345.5Z" transform="translate(-93.9 -70.01)" style="fill:url(#linear-gradient-11)"/><path d="M247.57,347.54c-.67,3.35-10.22,5-15.81,4.13s-11.6-3.63-11.4-10.11c0,0,1.06-15.48.64-18.24a77.85,77.85,0,0,1-1.48-12.72,15,15,0,0,1,3.2-8.86s3.13-3.57,13-1.56c0,0,8,1.74,11.69,7.66,0,0,2.54,6.5,1.7,20.08S247.57,347.54,247.57,347.54Z" transform="translate(-93.9 -70.01)" style="fill:#113c7a"/><path d="M228,293s.85,4.95,0,7.21c-.14,1.13,4.81,4.95,9.19,4,2.55-.57,2.4-1.84,2.4-1.84s-2.12-3.53-1.84-6.93S231,292.29,228,293Z" transform="translate(-93.9 -70.01)" style="fill:#ff7c40"/><circle cx="138.98" cy="213.02" r="11.66" style="fill:#ff9d6f"/><path d="M244.54,283.81s.14,11.68-2.4,14-6.45-2.21-12.7-3.67,5.06-13.75,5.06-13.75Z" transform="translate(-93.9 -70.01)" style="fill:#ff9d6f"/><path d="M270.43,301.07s-1.11-4.56-.74-4.93,1.85,1.6,1.85,1.6.74-4.68,1.36-5.18,3.08,2,3.45,3.33-1.48,6.78-2.22,6.9S270.8,303.29,270.43,301.07Z" transform="translate(-93.9 -70.01)" style="fill:#ff9d6f"/><path d="M243.94,306.5s-5.18,2.46-3,8.87,18.73,8.87,20.7,6.9,10.6-12.08,13.06-19.72c0,0-1-3-4.93-1.73,0,0-9.37,11.83-10.84,13.06S246.4,306,243.94,306.5Z" transform="translate(-93.9 -70.01)" style="fill:#113c7a"/><path d="M222.89,274.14a14.89,14.89,0,0,1,9.89-4.85c6.26-.4,9.29,1.62,11.71,1.41a3.65,3.65,0,0,1,3.84,4.85c-.81,3-2.62,6.06-6.66,6.06s-5-.61-5-.61,3.23,1.41,3.63,4.24a62.84,62.84,0,0,1,.4,7.07h-1s-.81-4.64-2.42-4.64-1.62,5-.2,5.86l1.41.81s-2.71,5-4.18,5.24-6.32-3.42-6.32-3.42-8.08-3.84-8.89-10.1S222.89,274.14,222.89,274.14Z" transform="translate(-93.9 -70.01)" style="fill:#843837"/><ellipse cx="41.45" cy="312.71" rx="33.01" ry="19.62" style="opacity:0.32;mix-blend-mode:multiply;fill:url(#linear-gradient-12)"/><path d="M118.63,329.08s2.22,14,4.07,21.81c0,0,.37,12.94.74,17.37s1.48,14,1.48,14a2.66,2.66,0,0,0,2.77.37s1.85-27.54,2.22-32,1.66-24.4,1.66-24.4S127.32,322.42,118.63,329.08Z" transform="translate(-93.9 -70.01)" style="fill:#f5b697"/><path d="M132.49,323.53s2.22,14,4.07,21.81c0,0,.37,12.94.74,17.38s1.48,14,1.48,14a2.66,2.66,0,0,0,2.77.37s1.85-27.54,2.22-32,.55-24.21.55-24.21S141.18,316.88,132.49,323.53Z" transform="translate(-93.9 -70.01)" style="fill:#f5b697"/><path d="M121.4,310.1s-5.24,5.73-2.22,25.14a87.28,87.28,0,0,0,2,9.92,31.55,31.55,0,0,0,15-2c8.13-3.14,8.32-4.81,8.32-4.81S144.87,314,143,307.7,121.4,310.1,121.4,310.1Z" transform="translate(-93.9 -70.01)" style="fill:#113c7a"/><path d="M141.64,375.84a2.85,2.85,0,0,0,1.29,2.5c1.48,1.11,4.25,3.14,4.71,4.34,0,.92-3.51-.09-5.08-.92a11.67,11.67,0,0,1-3-2.77l.09.83a1.57,1.57,0,0,1-1-.46c-.46-.46.09-3.33.09-3.33Z" transform="translate(-93.9 -70.01)" style="fill:#5167b0"/><path d="M127.78,382.22a2.85,2.85,0,0,0,1.29,2.5c1.48,1.11,4.25,3.14,4.71,4.34,0,.92-3.51-.09-5.08-.92a11.67,11.67,0,0,1-3-2.77l.09.83a1.57,1.57,0,0,1-1-.46c-.46-.46.09-3.33.09-3.33Z" transform="translate(-93.9 -70.01)" style="fill:#5167b0"/><path d="M141.33,273.37s4.8.76,7.91,11.18c1.86,6.89,4.56,7.52,7.68,8.14s16.21,0,17.25,0,2.29,2.29.83,3.95S155.46,300,151.93,300s-11.64-6.65-15-12.05S137,273,141.33,273.37Z" transform="translate(-93.9 -70.01)" style="fill:url(#linear-gradient-13)"/><path d="M139,247.39s4.78,6.13,3.74,13-7.07,6.55-8.1,10.29,2.91,9.14-2.49,12.68-7.9,2.7-9.35,10.18-6.65,11.43-15.58,12.26-15.17-10-12.88-17.87,10.18-5.4,11.84-11.84,1-11.53,6.65-14,3.53-11.95,9.14-14.86S134.89,242.62,139,247.39Z" transform="translate(-93.9 -70.01)" style="fill:#113c7a"/><path d="M126.6,271.29s-10.28,7.34-11.29,9.79-2.45,10,.88,13.77c5.78,6.46,2.3,17.55,3.06,20.81s8.6,3.67,14,2.61,10.48-3.84,10.28-10.18,1.47-15.05,1.82-17.91A49.57,49.57,0,0,0,144,275.32c-.28-1-3.7-2.08-3.7-2.08S136.73,270.86,126.6,271.29Z" transform="translate(-93.9 -70.01)" style="fill:url(#linear-gradient-14)"/><path d="M135.54,269.9a1,1,0,0,0,0,.33c.11.75.49,2.68.56,3.48s-.81,2.11-2.89,2.07-5.62-.91-6.79-3.39a57.55,57.55,0,0,0-.35-7.33Z" transform="translate(-93.9 -70.01)" style="fill:#ff7c40"/><path d="M141.31,256.05c-1.11-6-5.83-9.34-11.17-8.09,0,0-5.79.58-8.36,5.66S123,263,125.4,265.68c1,1.11,1.79,2,2.28,2.5.18.21.35.41.53.6l.05.06h0a12.1,12.1,0,0,0,4.95,3c2.33.69,5.08.3,6.57-1.29S142.43,262,141.31,256.05Z" transform="translate(-93.9 -70.01)" style="fill:#ff9d6f"/><path d="M142.27,260.07s-4.26.42-6.75-2.49-6,0-8.94-2.49a9.24,9.24,0,0,1,0,6.23,34.14,34.14,0,0,0-1.66,7.9l-5.4-8.52v-7.48l6.86-6.44,9.14-.42,4.36,4.16S142.68,257,142.27,260.07Z" transform="translate(-93.9 -70.01)" style="fill:#113c7a"/><path d="M118.54,296.37l12.91,4.07,12-3.36c-.18.53-3.36,10.26-10.26,12-5,1.27-10.82-3.11-13.73-5.69a17.42,17.42,0,0,0-1.25-5.27Z" transform="translate(-93.9 -70.01)" style="opacity:0.43;mix-blend-mode:multiply;fill:url(#linear-gradient-15)"/><path d="M119.12,284.19s-6.86-1.66-3.95,7.69,12.68,16.21,16.21,15.79,17.87-15.58,17.87-17.45a2.7,2.7,0,0,0-3.32-2.7c-1.66.42-12.68,12.26-13.71,11.84S124.73,288.13,119.12,284.19Z" transform="translate(-93.9 -70.01)" style="fill:url(#linear-gradient-16)"/><path d="M147.3,290.9a2.06,2.06,0,0,1-1.37-2.63c.57-2.06,4.35-3.66,4.92-3.78s6.18,1,6.41,1.72-1,1-2.4.69a22.89,22.89,0,0,0-3.43-.46s1.49,1.6,1.37,2.29a4.33,4.33,0,0,1-2.06,2.63c-1.14.57-2.52-.69-2.52-.69Z" transform="translate(-93.9 -70.01)" style="fill:#ff9d6f"/><path d="M172.44,293s4.53-3.86,4.78-3.17-1.55,2.6-1.55,2.6,6.07-2.32,6.14-1.53-3.2,3.26-4.07,3.84a22.21,22.21,0,0,1-4,1.42S172.09,293.9,172.44,293Z" transform="translate(-93.9 -70.01)" style="fill:#ff9d6f"/><g style="opacity:0.5700000000000001"><path d="M151.88,258.57a6,6,0,0,0-2.7,4.69l.18,63.71c0,4.06,2.9,5.72,6.41,3.69l37.95-21.91a6,6,0,0,0,2.7-4.69l-.18-63.71c0-4.06-2.9-5.72-6.41-3.69Z" transform="translate(-93.9 -70.01)" style="fill:#1ae5ff"/></g><path d="M157.7,281.66a1.77,1.77,0,0,0-.8,1.39v3.38c0,.51.36.72.81.46L188.66,269a1.77,1.77,0,0,0,.8-1.39v-3.38c0-.51-.36-.72-.81-.46Z" transform="translate(-93.9 -70.01)" style="fill:#fff"/><path d="M157.72,289a1.77,1.77,0,0,0-.8,1.39v3.38c0,.51.36.72.81.46l30.94-17.86a1.76,1.76,0,0,0,.8-1.39v-3.38c0-.51-.36-.72-.81-.46Z" transform="translate(-93.9 -70.01)" style="fill:#fff"/><path d="M169.8,294.5a4.2,4.2,0,0,0-1.9,3.3v.78c0,1.21.86,1.7,1.92,1.09l10-5.78a4.2,4.2,0,0,0,1.91-3.3v-.78c0-1.21-.86-1.7-1.92-1.09Z" transform="translate(-93.9 -70.01)" style="fill:#fff"/><path d="M137.82,128.4l3.53,9.76-1.42.82-1.1-3.07L135.2,138l-1.06,4.32-1.37.79,3.45-13.8Zm-2.36,8.26,3.09-1.78-1-2.81c-.23-.64-.38-1.26-.54-1.85l0,0c-.15.79-.32,1.6-.51,2.43l-1,4" transform="translate(-93.9 -70.01)" style="fill:#a0a9b0"/><path d="M151.63,121.8c.92.43,1.45,1.49,1.45,3.4a10.75,10.75,0,0,1-1.46,5.44A12.24,12.24,0,0,1,147.1,135a26.31,26.31,0,0,1-2.41,1.25l0-11.6a28.3,28.3,0,0,1,2.81-1.87C149.37,121.64,150.73,121.36,151.63,121.8Zm-4.28,11.78a8.39,8.39,0,0,0,4.35-7.53c0-2.79-1.37-3.77-4.17-2.15A11.39,11.39,0,0,0,146,125l0,9.3a9.84,9.84,0,0,0,1.34-.69" transform="translate(-93.9 -70.01)" style="fill:#a0a9b0"/><path d="M163.59,114.9c.92.43,1.46,1.49,1.46,3.4a10.75,10.75,0,0,1-1.46,5.44,12.29,12.29,0,0,1-4.53,4.32,26.05,26.05,0,0,1-2.4,1.25l0-11.6a28.3,28.3,0,0,1,2.81-1.87C161.34,114.73,162.69,114.45,163.59,114.9Zm-4.28,11.77a8.4,8.4,0,0,0,4.35-7.53c0-2.79-1.37-3.77-4.17-2.15a11.39,11.39,0,0,0-1.55,1.06l0,9.3a9.78,9.78,0,0,0,1.34-.69" transform="translate(-93.9 -70.01)" style="fill:#a0a9b0"/><path d="M181.18,103.36l0,6.87a8,8,0,0,1-3.87,7.35c-2.1,1.21-3.69.74-3.7-2.91l0-6.94L175,107l0,7c0,2.64,1,3.17,2.4,2.38,1.53-.88,2.49-2.59,2.49-5.2l0-7Z" transform="translate(-93.9 -70.01)" style="fill:#a0a9b0"/><path d="M188.32,99a4.32,4.32,0,0,1,2.27-.74l-.36,1.45a3.63,3.63,0,0,0-1.95.57,3.57,3.57,0,0,0-1.93,2.89c0,1.1.63,1.28,2,1.1,1.74-.23,2.62.22,2.63,2a6.64,6.64,0,0,1-3.58,5.46,4.72,4.72,0,0,1-2.62.76l.33-1.47a4.4,4.4,0,0,0,4.52-3.85c0-1.11-.55-1.41-1.93-1.23-1.68.29-2.72-.11-2.72-1.77A6.41,6.41,0,0,1,188.32,99Z" transform="translate(-93.9 -70.01)" style="fill:#a0a9b0"/><polygon points="106.28 22.38 106.28 23.66 102.07 26.09 102.08 29.82 106.06 27.52 106.07 28.77 102.08 31.07 102.1 35.32 106.54 32.75 106.54 34.03 100.77 37.36 100.74 25.58 106.28 22.38" style="fill:#a0a9b0"/><path d="M209.87,95.37a12.74,12.74,0,0,0,.8,2.77l-1.37.79a10.93,10.93,0,0,1-.69-2.42c-.31-1.45-.86-1.74-2.06-1.11l-1.25.72v5.11L204,102l0-11.63a21.2,21.2,0,0,1,2.54-1.71c1.42-.82,2.33-1.05,3-.75s.81.86.81,1.77a6,6,0,0,1-1.92,4.12v.05C209.14,93.71,209.61,94.29,209.87,95.37Zm-3.22-1.18a4.34,4.34,0,0,0,2.3-3.57c0-1.52-1-1.63-2.37-.84a8.21,8.21,0,0,0-1.31.9V95l1.36-.79" transform="translate(-93.9 -70.01)" style="fill:#a0a9b0"/></g></g></svg>